<svg fill="none" height="92" viewBox="0 0 92 92" width="92" xmlns="http://www.w3.org/2000/svg"><rect fill="#000" height="91.5618" rx="20" width="91.5618"/><g clip-rule="evenodd" fill-rule="evenodd"><path d="m55.6702 39.5578c3.0666 2.182 6.739 3.3478 10.5015 3.3336v-7.4633c-.7397.002-1.4773-.0772-2.1997-.2364v5.9458c-3.771.0067-7.4488-1.1724-10.514-3.3709v15.3496c-.0093 2.5188-.6994 4.9881-1.9972 7.1461-1.2978 2.1579-3.1548 3.9242-5.3743 5.1114-2.2194 1.1872-4.7185 1.7511-7.2322 1.632-2.5137-.1192-4.9483-.917-7.0457-2.3088 1.94 1.9647 4.4189 3.3089 7.1228 3.8626 2.7038.5536 5.511.2917 8.0661-.7525 2.555-1.0443 4.743-2.8239 6.2869-5.1136 1.5439-2.2896 2.3742-4.9863 2.3858-7.7486zm2.7217-7.6126c-1.5595-1.6919-2.5164-3.8522-2.7217-6.1449v-.9702h-2.0879c.2581 1.4573.8197 2.8439 1.6483 4.0698.8286 1.2258 1.9057 2.2634 3.1613 3.0453zm-21.7489 26.8432c-.7236-.9471-1.1671-2.0786-1.2799-3.2656s.1095-2.3818.6418-3.4486c.5322-1.0667 1.353-1.9624 2.3688-2.5853 1.0158-.6228 2.186-.9477 3.3772-.9378.6577-.0002 1.3115.1005 1.9388.2986v-7.7122c-.7332-.0972-1.4727-.1387-2.2122-.1244v5.9956c-1.5272-.4832-3.1802-.3733-4.6302.3078s-2.5907 1.8835-3.1953 3.3681c-.6046 1.4845-.6287 3.1425-.0676 4.644.5611 1.5016 1.6664 2.7367 3.0959 3.4598z" fill="#ee1d52"/><path d="m53.4569 37.7168c3.0652 2.1985 6.743 3.3777 10.514 3.371v-5.9458c-2.1485-.4547-4.1003-1.5729-5.5801-3.1968-1.2555-.7819-2.3326-1.8195-3.1613-3.0453-.8286-1.2259-1.3902-2.6125-1.6483-4.0698h-5.4931v30.1147c-.0051 1.3329-.4272 2.6308-1.2069 3.7115-.7798 1.0806-1.878 1.8897-3.1407 2.3137-1.2626.424-2.6262.4416-3.8993.0503-1.2732-.3912-2.3919-1.1717-3.1992-2.2319-1.2794-.6461-2.3041-1.7048-2.9086-3.0053s-.7536-2.7669-.4233-4.1626 1.1208-2.6393 2.2439-3.5302 2.5133-1.3771 3.9464-1.3801c.6575.0021 1.311.1027 1.9387.2985v-5.9956c-2.7122.0652-5.3465.9216-7.5793 2.4641-2.2329 1.5425-3.9672 3.7039-4.99 6.219s-1.2897 5.2744-.7678 7.9392c.5218 2.6647 1.8097 5.119 3.7055 7.0615 2.0979 1.4018 4.5363 2.2079 7.0557 2.3322 2.5193.1244 5.0252-.4375 7.2507-1.6259s4.0872-2.9588 5.3869-5.1225 1.9886-4.6398 1.9934-7.1645z" fill="#fff"/><path d="m63.9716 35.1411v-1.6046c-1.9731.0084-3.9081-.5437-5.5801-1.5922 1.4761 1.6287 3.4294 2.7478 5.5801 3.1968zm-10.3897-10.3119c0-.2861-.087-.5846-.1243-.8707v-.9702h-7.581v30.1271c-.0066 1.6869-.6816 3.3024-1.8769 4.4917-1.1953 1.1894-2.8132 1.8555-4.4986 1.8522-.9924.0049-1.9719-.2252-2.8584-.6717.8073 1.0601 1.926 1.8406 3.1992 2.2319 1.2731.3913 2.6367.3737 3.8993-.0503 1.2627-.424 2.3609-1.2331 3.1407-2.3137.7797-1.0807 1.2017-2.3786 1.2069-3.7116v-30.1147zm-12.1421 16.1707v-1.7042c-3.1195-.4241-6.2906.2217-8.9965 1.8324-2.7058 1.6106-4.7869 4.091-5.9039 7.037-1.1171 2.9459-1.2044 6.1837-.2476 9.1857.9568 3.0019 2.9012 5.591 5.5164 7.3453-1.8814-1.947-3.1556-4.4003-3.6668-7.0602s-.2374-5.4113.7881-7.918c1.0256-2.5066 2.7583-4.6601 4.9866-6.1973 2.2282-1.5371 4.8556-2.3914 7.561-2.4585z" fill="#69c9d0"/></g></svg>